PathFileType	4	(X/Y/Z)	./resultDataOpenSim/trcMotMarkerGrf/sub09/qtm-01-06.trc
DataRate	CameraRate	NumFrames	NumMarkers	Units	OrigDataRate	OrigDataStartFrame	OrigNumFrames
250.000000	250.000000	14	24	m	250.000000	362	482
Frame#	Time	L.Toe.Tip			R.Toe.Tip			L.Ankle.Lat			R.Ankle.Lat			L.Ankle.Med			R.Ankle.Med			L.Heel			R.Heel			L.Knee.Lat			R.Knee.Lat			L.Knee.Med			R.Knee.Med			L.Thigh.Upper			R.Thigh.Upper			L.ASIS			R.ASIS			V.Sacral			L.Acromium			R.Acromium			C7			L.Elbow			R.Elbow			L.Wrist.Lat			R.Wrist.Lat
		X1	Y1	Z1	X2	Y2	Z2	X3	Y3	Z3	X4	Y4	Z4	X5	Y5	Z5	X6	Y6	Z6	X7	Y7	Z7	X8	Y8	Z8	X9	Y9	Z9	X10	Y10	Z10	X11	Y11	Z11	X12	Y12	Z12	X13	Y13	Z13	X14	Y14	Z14	X15	Y15	Z15	X16	Y16	Z16	X17	Y17	Z17	X18	Y18	Z18	X19	Y19	Z19	X20	Y20	Z20	X21	Y21	Z21	X22	Y22	Z22	X23	Y23	Z23	X24	Y24	Z24

362	1.444	0.98823771	0.065295571	-0.076416547	1.0069896	0.038087155	0.072685447	0.86126978	0.15029246	-0.090856418	0.86018822	0.05823001	0.10899715	0.90230966	0.1521542	-0.0013568052	0.87197096	0.098205117	0.018150152	0.78775047	0.13589868	-0.033672288	0.79051977	0.042121842	0.061182979	1.0662802	0.50958256	-0.1263634	0.98613457	0.50006673	0.16849744	1.0884357	0.50057586	-0.003925338	0.96135731	0.49148463	0.044101838	0.91009474	0.89765705	-0.13607617	0.93939479	0.90530295	0.23390262	0.98841782	0.98635098	-0.083366626	1.0196449	0.99160719	0.15293982	0.8355375	1.0412767	0.052542754	0.96506274	1.4410017	-0.13064523	0.99536013	1.4502069	0.19887915	0.91570738	1.49382	0.043245779	0.81565573	1.1006578	-0.17133646	0.87989928	1.1090433	0.31254349	0.94429721	0.87604854	-0.23040826	1.048399	0.89235979	0.29173457
363	1.448	1.0081437	0.06437501	-0.076994159	1.0070037	0.038002322	0.072763258	0.87883922	0.1455832	-0.091294378	0.86028715	0.058520055	0.10890227	0.91953067	0.14849572	-0.0016591014	0.87166998	0.098449921	0.018117526	0.8054065	0.1289512	-0.034002517	0.79059037	0.042561961	0.060965788	1.074339	0.51079118	-0.12599446	0.98719503	0.5002867	0.1687219	1.0954707	0.50213244	-0.0036858405	0.96240466	0.49170444	0.044299301	0.91613267	0.89838574	-0.13636307	0.9434759	0.90567324	0.2340508	0.99408484	0.98699614	-0.083236835	1.0245525	0.99202575	0.153143	0.84089578	1.0419416	0.052172291	0.97055192	1.4415305	-0.13072511	1.000968	1.4508593	0.19876256	0.92123973	1.4943676	0.043177944	0.81997267	1.1017708	-0.17138924	0.88602832	1.1094	0.31263826	0.94754148	0.87679061	-0.23136102	1.0557434	0.89370103	0.2909893
364	1.452	1.028118	0.063615381	-0.077568926	1.0070338	0.037961848	0.072848584	0.89652804	0.14096417	-0.091742568	0.86033067	0.058796646	0.1088145	0.93714434	0.14489624	-0.0020824275	0.8716046	0.098738532	0.018065462	0.82312959	0.1221504	-0.034304888	0.79066572	0.042988309	0.060697116	1.0822389	0.51193604	-0.12562566	0.98823848	0.50045888	0.16896398	1.102092	0.50352574	-0.0034710005	0.96349416	0.4919332	0.044483149	0.92207864	0.89902971	-0.1366111	0.94734333	0.90598336	0.23427982	0.99975762	0.98756023	-0.083129444	1.0294611	0.99239661	0.15334014	0.84630195	1.0425837	0.0518129	0.97604814	1.4420078	-0.13081117	1.0065623	1.4514462	0.19864657	0.92675778	1.4948778	0.04310939	0.82427842	1.1027895	-0.17144067	0.89214191	1.1096882	0.31272115	0.95081552	0.87748825	-0.23228699	1.0631173	0.89499244	0.290251
365	1.456	1.0481099	0.06299239	-0.078142582	1.0071019	0.0379663	0.072936912	0.91432185	0.13645952	-0.092192464	0.86037405	0.059062322	0.10870711	0.95514726	0.14144462	-0.0027551826	0.87183547	0.099111353	0.018013766	0.84125271	0.11548184	-0.034759848	0.79072802	0.04339595	0.060364511	1.0899495	0.51301469	-0.12525469	0.98918598	0.50056381	0.16926287	1.1084327	0.50474887	-0.0032863991	0.96478281	0.49213437	0.044687756	0.92791248	0.89959845	-0.13682538	0.95136056	0.90633328	0.23440082	1.0054402	0.98804537	-0.083041884	1.0343765	0.99271948	0.15353173	0.85171569	1.0431706	0.051434113	0.98154643	1.4424296	-0.13090516	1.012136	1.4519673	0.1985275	0.93227179	1.495336	0.043042234	0.82861589	1.1037442	-0.17150099	0.89824357	1.1099138	0.31279563	0.95412159	0.87813737	-0.23318326	1.0705201	0.896237	0.28952142
366	1.46	1.0680954	0.062503856	-0.07871342	1.0072301	0.038009009	0.073023801	0.9322187	0.13207964	-0.092648559	0.86043278	0.05933008	0.10857016	0.97367125	0.13830327	-0.003992947	0.87215244	0.099551968	0.017931753	0.8599664	0.10890891	-0.035450481	0.79076369	0.043805122	0.059957676	1.097481	0.51399221	-0.1248761	0.99001488	0.50061267	0.16963288	1.1146866	0.50579787	-0.0031147661	0.9663432	0.49228309	0.04492508	0.93367039	0.90009526	-0.13702193	0.95555472	0.90673804	0.23438251	1.0111422	0.98844846	-0.082968366	1.039301	0.99299474	0.15371375	0.8570992	1.04367	0.051010923	0.98704678	1.4427953	-0.13100544	1.0176872	1.4524241	0.19840592	0.93778146	1.4957187	0.042971241	0.83302389	1.1046563	-0.17157738	0.90432751	1.1100793	0.31285941	0.95747215	0.87872668	-0.23405248	1.0779078	0.89742929	0.28879904
367	1.464	1.0880697	0.06216342	-0.07928186	1.0074392	0.038082175	0.073109658	0.95022236	0.12783017	-0.093120156	0.8604906	0.059608827	0.10840974	0.99301406	0.13562808	-0.0061528195	0.87238728	0.10000272	0.017788148	0.87917517	0.10241388	-0.036260208	0.79075297	0.04425001	0.059459035	1.1048495	0.51482569	-0.12449119	0.99079809	0.50063254	0.17005625	1.1213277	0.50669814	-0.0028483646	0.96804662	0.49239426	0.045161027	0.93940211	0.90052102	-0.13721096	0.95955473	0.90714664	0.23434311	1.0168664	0.98876811	-0.082902816	1.044235	0.99322288	0.15388291	0.86245206	1.0440849	0.050544282	0.99255266	1.4431073	-0.13111043	1.0232193	1.4528192	0.19828411	0.94328259	1.4960178	0.042887232	0.83751001	1.105525	-0.17166931	0.91038974	1.110186	0.31291101	0.96087943	0.87924662	-0.23490065	1.0852333	0.89855947	0.28808113
368	1.468	1.1080262	0.061987401	-0.079852032	1.0077578	0.038185943	0.073204214	0.96832423	0.12373779	-0.093603375	0.86053199	0.059895444	0.10823559	1.0131241	0.13339642	-0.0091053852	0.87261463	0.10039458	0.017634475	0.89866318	0.096029309	-0.037020505	0.79069143	0.044744739	0.058873955	1.1120486	0.51547787	-0.12411927	0.99160262	0.500644	0.17049015	1.1293939	0.50752789	-0.0022062098	0.96969275	0.49250726	0.045336155	0.94513666	0.90087472	-0.13740067	0.96286045	0.90750444	0.23443042	1.0226041	0.98901161	-0.082843407	1.0491803	0.99340343	0.15403857	0.86781873	1.0444392	0.050039781	0.99806361	1.443367	-0.13121994	1.0287337	1.453153	0.19816144	0.94877703	1.4962413	0.042783181	0.84205789	1.1063415	-0.17177337	0.91643068	1.1102343	0.31294872	0.96435027	0.8796945	-0.23573199	1.0924861	0.89962287	0.28736819
369	1.472	1.1279531	0.061990475	-0.080427821	1.0081999	0.038327253	0.07331945	0.98651012	0.11983232	-0.094091258	0.86056233	0.060178175	0.10804839	1.0332922	0.13134219	-0.012043882	0.87301904	0.10070414	0.017597841	0.91818504	0.089872996	-0.037691136	0.79062711	0.045260089	0.058274409	1.1190625	0.51591296	-0.12379159	0.99241435	0.5006556	0.17089738	1.1402196	0.50839465	-0.00080375606	0.97118592	0.49265598	0.045401499	0.95088083	0.90115243	-0.13759594	0.96537553	0.90778777	0.2346842	1.0283473	0.98918761	-0.082792621	1.0541399	0.99353501	0.15418035	0.87325706	1.0447443	0.049485827	1.0035768	1.4435765	-0.13133614	1.0342307	1.4534229	0.19803751	0.95426616	1.4964021	0.042661366	0.84664792	1.1070949	-0.17188822	0.92244959	1.1102202	0.31296645	0.96789367	0.88006569	-0.23654684	1.0996812	0.90062058	0.28666252
370	1.476	1.1478372	0.062187957	-0.081010818	1.00864	0.038464449	0.073438035	1.0047744	0.11611229	-0.094588722	0.86059116	0.060445784	0.1078436	1.0527508	0.1291949	-0.014177252	0.87361336	0.10100158	0.017733864	0.93745953	0.084129421	-0.038399972	0.79062122	0.045747309	0.057745092	1.1258852	0.5161205	-0.1235234	0.99321253	0.50066514	0.17125054	1.1539606	0.50932337	0.0014304656	0.97255236	0.49284987	0.045358206	0.95663193	0.90135012	-0.13779133	0.96777725	0.9080196	0.23496367	1.0340951	0.98929767	-0.082754909	1.0591164	0.99361657	0.15430586	0.87877323	1.0449792	0.048876964	1.0090953	1.4437375	-0.1314602	1.0397195	1.4536245	0.19790917	0.95974725	1.496509	0.04253505	0.85127442	1.1077678	-0.17201428	0.92844734	1.1101388	0.31295963	0.97151553	0.88035422	-0.23734654	1.1068328	0.90155463	0.2859643
371	1.48	1.1676647	0.06259757	-0.081600737	1.0087986	0.03851253	0.073515037	1.0231119	0.11256132	-0.095103371	0.86061169	0.060694676	0.10762122	1.0713735	0.12692938	-0.015416812	0.87421745	0.1013827	0.017949546	0.95639605	0.078868697	-0.039278086	0.79067788	0.046182765	0.057292807	1.1325294	0.51614627	-0.12329371	0.99405008	0.5006629	0.17152714	1.1682908	0.51015252	0.0038822372	0.97386857	0.49306183	0.045276152	0.96238634	0.90146758	-0.13798334	0.97099878	0.90825222	0.2350699	1.0398509	0.98933768	-0.082733863	1.064113	0.9936483	0.15441282	0.88428371	1.0450957	0.048247404	1.0146258	1.4438465	-0.13159145	1.0452318	1.4537533	0.19775353	0.96522146	1.4965632	0.042414234	0.85594867	1.1083443	-0.17215133	0.93443979	1.1099922	0.31293704	0.9752019	0.88056669	-0.23813392	1.1139479	0.90242484	0.28527328
372	1.484	1.1874241	0.063236667	-0.08219415	1.0085539	0.038479192	0.073543014	1.041505	0.10918968	-0.09563053	0.86061099	0.060927913	0.10738379	1.0894828	0.12466838	-0.016104943	0.87469319	0.10182329	0.018099562	0.97531018	0.073901456	-0.040265507	0.79075796	0.046576041	0.056864869	1.1390197	0.5160605	-0.12306399	0.99498039	0.50064452	0.17173764	1.1800536	0.51064905	0.0057008991	0.975219	0.49324178	0.045242788	0.96815135	0.90150499	-0.1381886	0.97533931	0.90850884	0.23494047	1.0456236	0.98930117	-0.082728667	1.0691317	0.99362982	0.15450199	0.88969536	1.0450642	0.047648992	1.0201686	1.4438954	-0.13173088	1.0508214	1.4538075	0.19752669	0.97069301	1.4965606	0.042292733	0.86068324	1.1088283	-0.17229718	0.94045833	1.1097932	0.31292055	0.97892668	0.88071795	-0.23890479	1.1210309	0.90322839	0.28459095
373	1.488	1.207109	0.064121071	-0.082782991	1.0081164	0.038475399	0.073559205	1.0599257	0.10602948	-0.096157821	0.86059198	0.061150403	0.10713116	1.1072276	0.12243971	-0.016342978	0.87504611	0.10217923	0.018102911	0.99458365	0.068994327	-0.041177202	0.79083496	0.046947185	0.056423863	1.145374	0.51589589	-0.12281024	0.99596201	0.50061619	0.17191447	1.1883168	0.51074216	0.0066230704	0.97670712	0.49335319	0.045297823	0.97396742	0.90145593	-0.13843814	0.98040152	0.90875444	0.23466104	1.051422	0.98918235	-0.082736452	1.0741683	0.99355719	0.15457697	0.89502438	1.0449178	0.047096955	1.0257155	1.4438801	-0.13188082	1.056517	1.4537964	0.19720911	0.97615812	1.4964954	0.042158055	0.86547658	1.1092429	-0.17244892	0.94651504	1.1095505	0.31292115	0.98267782	0.88081268	-0.23964942	1.1280845	0.90396193	0.283918
374	1.492	1.2267122	0.065266278	-0.083361462	1.0077361	0.038547211	0.073574841	1.0783466	0.10309809	-0.096681846	0.86057673	0.061369836	0.10686295	1.1243528	0.1201091	-0.015778517	0.87533427	0.10236013	0.017957901	1.0142088	0.064170214	-0.041937592	0.79090957	0.047310594	0.055971682	1.1515896	0.51564269	-0.12253221	0.99691386	0.50057714	0.17207324	1.1944661	0.51054152	0.0069945833	0.97841925	0.49339207	0.045424308	0.97991313	0.90131066	-0.13876129	0.98565684	0.90893936	0.23434302	1.0572494	0.98898073	-0.082756909	1.0792158	0.99342418	0.15464223	0.90037523	1.0447149	0.046562815	1.0312598	1.4438073	-0.13204747	1.0622566	1.4537451	0.1968518	0.98160895	1.4963639	0.042005379	0.87031665	1.1096084	-0.17260623	0.95256835	1.109249	0.31291384	0.98646241	0.88084348	-0.24036746	1.1351156	0.90462507	0.28324976
375	1.496	1.2462167	0.066682634	-0.083932816	1.0074858	0.038633599	0.073575245	1.0967515	0.10039309	-0.097211184	0.86058544	0.061595936	0.10658456	1.1406313	0.11759017	-0.014141889	0.87559949	0.10242223	0.017677124	1.0339136	0.059652596	-0.042695532	0.79099361	0.047670593	0.055528241	1.1576482	0.51528468	-0.12224927	0.99780659	0.50051941	0.17222653	1.2000537	0.51017388	0.0072125332	0.98026873	0.49339099	0.045549322	0.98603415	0.90106675	-0.13916344	0.99078501	0.90904125	0.23405494	1.0631038	0.98870012	-0.08278817	1.0842737	0.99322811	0.1547014	0.9058187	1.0444718	0.046016175	1.0368043	1.4436935	-0.13224694	1.0679284	1.4536726	0.19653657	0.98704968	1.4961624	0.041837394	0.87519619	1.1099233	-0.17277479	0.95855708	1.1088614	0.31285776	0.99029343	0.88080098	-0.24107115	1.1421445	0.90522269	0.28257514
